<svg id="visual" viewBox="0 0 960 540" width="960" height="540" xmlns="http://www.w3.org/2000/svg" xmlns:xlink="http://www.w3.org/1999/xlink" version="1.1"><rect x="0" y="0" width="960" height="540" fill="#f8f9ff"></rect><defs><linearGradient id="grad1_0" x1="43.8%" y1="100%" x2="100%" y2="0%"><stop offset="14.444444444444446%" stop-color="#152031" stop-opacity="1"></stop><stop offset="85.55555555555554%" stop-color="#152031" stop-opacity="1"></stop></linearGradient></defs><defs><linearGradient id="grad1_1" x1="43.8%" y1="100%" x2="100%" y2="0%"><stop offset="14.444444444444446%" stop-color="#152031" stop-opacity="1"></stop><stop offset="85.55555555555554%" stop-color="#7f8491" stop-opacity="1"></stop></linearGradient></defs><defs><linearGradient id="grad1_2" x1="43.8%" y1="100%" x2="100%" y2="0%"><stop offset="14.444444444444446%" stop-color="#f8f9ff" stop-opacity="1"></stop><stop offset="85.55555555555554%" stop-color="#7f8491" stop-opacity="1"></stop></linearGradient></defs><defs><linearGradient id="grad2_0" x1="0%" y1="100%" x2="56.3%" y2="0%"><stop offset="14.444444444444446%" stop-color="#152031" stop-opacity="1"></stop><stop offset="85.55555555555554%" stop-color="#152031" stop-opacity="1"></stop></linearGradient></defs><defs><linearGradient id="grad2_1" x1="0%" y1="100%" x2="56.3%" y2="0%"><stop offset="14.444444444444446%" stop-color="#7f8491" stop-opacity="1"></stop><stop offset="85.55555555555554%" stop-color="#152031" stop-opacity="1"></stop></linearGradient></defs><defs><linearGradient id="grad2_2" x1="0%" y1="100%" x2="56.3%" y2="0%"><stop offset="14.444444444444446%" stop-color="#7f8491" stop-opacity="1"></stop><stop offset="85.55555555555554%" stop-color="#f8f9ff" stop-opacity="1"></stop></linearGradient></defs><g transform="translate(960, 540)"><path d="M-161 0C-170.3 -36.7 -179.5 -73.3 -163.7 -94.5C-147.9 -115.7 -107 -121.4 -75.5 -130.8C-44 -140.1 -22 -153.1 0 -166L0 0Z" fill="#babcc7"></path><path d="M-107.3 0C-113.5 -24.4 -119.7 -48.9 -109.1 -63C-98.6 -77.1 -71.3 -81 -50.3 -87.2C-29.4 -93.4 -14.7 -102 0 -110.7L0 0Z" fill="#484f5f"></path><path d="M-53.7 0C-56.8 -12.2 -59.8 -24.4 -54.6 -31.5C-49.3 -38.6 -35.7 -40.5 -25.2 -43.6C-14.7 -46.7 -7.3 -51 0 -55.3L0 0Z" fill="#152031"></path></g><g transform="translate(0, 0)"><path d="M173 0C173.3 31.6 173.5 63.1 161.1 93C148.6 122.9 123.5 151.1 94.5 163.7C65.5 176.2 32.8 173.1 0 170L0 0Z" fill="#babcc7"></path><path d="M115.3 0C115.5 21 115.7 42.1 107.4 62C99.1 81.9 82.3 100.7 63 109.1C43.7 117.5 21.8 115.4 0 113.3L0 0Z" fill="#484f5f"></path><path d="M57.7 0C57.8 10.5 57.8 21 53.7 31C49.5 41 41.2 50.4 31.5 54.6C21.8 58.7 10.9 57.7 0 56.7L0 0Z" fill="#152031"></path></g></svg>