<svg id="visual" viewBox="0 0 960 540" width="960" height="540" xmlns="http://www.w3.org/2000/svg" xmlns:xlink="http://www.w3.org/1999/xlink" version="1.1"><rect x="0" y="0" width="960" height="540" fill="#d7deff"></rect><path d="M631 0L655 0L655 49L572 49L572 98L685 98L685 147L563 147L563 196L588 196L588 245L653 245L653 295L601 295L601 344L615 344L615 393L494 393L494 442L620 442L620 491L503 491L503 540L0 540L0 491L0 491L0 442L0 442L0 393L0 393L0 344L0 344L0 295L0 295L0 245L0 245L0 196L0 196L0 147L0 147L0 98L0 98L0 49L0 49L0 0L0 0Z" fill="#bec8ff"></path><path d="M524 0L526 0L526 49L467 49L467 98L507 98L507 147L398 147L398 196L568 196L568 245L457 245L457 295L391 295L391 344L521 344L521 393L477 393L477 442L419 442L419 491L414 491L414 540L0 540L0 491L0 491L0 442L0 442L0 393L0 393L0 344L0 344L0 295L0 295L0 245L0 245L0 196L0 196L0 147L0 147L0 98L0 98L0 49L0 49L0 0L0 0Z" fill="#8e9ac7"></path><path d="M423 0L333 0L333 49L379 49L379 98L364 98L364 147L302 147L302 196L438 196L438 245L296 245L296 295L417 295L417 344L397 344L397 393L346 393L346 442L298 442L298 491L299 491L299 540L0 540L0 491L0 491L0 442L0 442L0 393L0 393L0 344L0 344L0 295L0 295L0 245L0 245L0 196L0 196L0 147L0 147L0 98L0 98L0 49L0 49L0 0L0 0Z" fill="#616e91"></path><path d="M268 0L302 0L302 49L205 49L205 98L301 98L301 147L277 147L277 196L233 196L233 245L186 245L186 295L190 295L190 344L235 344L235 393L252 393L252 442L248 442L248 491L179 491L179 540L0 540L0 491L0 491L0 442L0 442L0 393L0 393L0 344L0 344L0 295L0 295L0 245L0 245L0 196L0 196L0 147L0 147L0 98L0 98L0 49L0 49L0 0L0 0Z" fill="#39455f"></path><path d="M158 0L168 0L168 49L96 49L96 98L75 98L75 147L69 147L69 196L77 196L77 245L150 245L150 295L52 295L52 344L133 344L133 393L98 393L98 442L94 442L94 491L169 491L169 540L0 540L0 491L0 491L0 442L0 442L0 393L0 393L0 344L0 344L0 295L0 295L0 245L0 245L0 196L0 196L0 147L0 147L0 98L0 98L0 49L0 49L0 0L0 0Z" fill="#152031"></path></svg>